PathFileType	3	(X/Y/Z)	F:\ViconData\AntennenMessung\Messung1\Session1\ID05.trc
DataRate	CameraRate	NumFrames	NumMarkers	Units	OrigDataRate	OrigDataStartFrame	OrigNumFrames
120.0	120.0	4	70	mm	120.0	665	1328	
Frame#	Time	Ashort			Along			Atop			A4			Bshort			Blong			Btop			B4			Cshort			Clong			Ctop			C4			Dshort			Dlong			Dtop			D4			Eshort			Elong			Etop			E4			Fshort			Flong			Ftop			F4			Gshort			Glong			Gtop			G4			Hshort			Hlong			Htop			H4			I1			I2			I3			I4			I5			WandAshort			WandAlong			WandAtop			WandA4			WandA15			WandBshort			WandB4			WandB5			WandBtop			WandBlong			WandCshort			WandClong			WandCtop			WandC4			WandC5			Acenter			Aantenna			Bcenter			Bantenna			Ccenter			Cantenna			Dcenter			Dantenna			Ecenter			Eantenna			Fcenter			Fantenna			Gcenter			Gantenna			Hcenter			Hantenna			Icenter			Iantenna			
		X1	Y1	Z1	X2	Y2	Z2	X3	Y3	Z3	X4	Y4	Z4	X5	Y5	Z5	X6	Y6	Z6	X7	Y7	Z7	X8	Y8	Z8	X9	Y9	Z9	X10	Y10	Z10	X11	Y11	Z11	X12	Y12	Z12	X13	Y13	Z13	X14	Y14	Z14	X15	Y15	Z15	X16	Y16	Z16	X17	Y17	Z17	X18	Y18	Z18	X19	Y19	Z19	X20	Y20	Z20	X21	Y21	Z21	X22	Y22	Z22	X23	Y23	Z23	X24	Y24	Z24	X25	Y25	Z25	X26	Y26	Z26	X27	Y27	Z27	X28	Y28	Z28	X29	Y29	Z29	X30	Y30	Z30	X31	Y31	Z31	X32	Y32	Z32	X33	Y33	Z33	X34	Y34	Z34	X35	Y35	Z35	X36	Y36	Z36	X37	Y37	Z37	X38	Y38	Z38	X39	Y39	Z39	X40	Y40	Z40	X41	Y41	Z41	X42	Y42	Z42	X43	Y43	Z43	X44	Y44	Z44	X45	Y45	Z45	X46	Y46	Z46	X47	Y47	Z47	X48	Y48	Z48	X49	Y49	Z49	X50	Y50	Z50	X51	Y51	Z51	X52	Y52	Z52	X53	Y53	Z53	X54	Y54	Z54	X55	Y55	Z55	X56	Y56	Z56	X57	Y57	Z57	X58	Y58	Z58	X59	Y59	Z59	X60	Y60	Z60	X61	Y61	Z61	X62	Y62	Z62	X63	Y63	Z63	X64	Y64	Z64	X65	Y65	Z65	X66	Y66	Z66	X67	Y67	Z67	X68	Y68	Z68	X69	Y69	Z69	X70	Y70	Z70	
665	5.5333333	-1038.2666	214.44539	-1644.2319	-1109.3094	203.44299	-1599.5608	-1063.7356	172.63609	-1625.4573	-1054.1171	262.06857	-1634.9746	-1353.0299	235.13452	1003.8923	-1281.3407	226.99806	1052.4222	-1322.9855	194.13026	1020.7387	-1284.6349	287.81827	1052.7921	813.8562	187.68909	1209.6163	893.04926	179.16365	1178.5865	844.55609	145.20398	1198.3467	860.85571	292.04999	1168.873	1115.7764	209.7204	-1401.7208	1056.1471	194.01157	-1460.2745	1095.0038	162.21518	-1423.8844	1069.8337	238.55643	-1425.967	-1204.4604	1685.9304	-1563.3474	-1129.1086	1688.209	-1606.1057	-1173.1205	1724.3844	-1581.9916	-1133.5356	1580.9635	-1603.4894	-1239.714	1699.2615	1119.33	-1309.4253	1698.924	1071.8309	-1270.3082	1736.1464	1096.6841	-1244.7323	1593.7601	1106.6165	988.90741	1664.2844	1162.3743	956.05573	1702.2266	1181.2549	922.77197	1662.0867	1215.0186	939.79742	1659.3158	1159.9904	999.18195	1668.5483	-1579.5396	1058.7422	1669.9584	-1518.6924	1025.0536	1708.0111	-1551.1659	1059.2812	1672.166	-1585.6271	-187.8853	1141.6132	506.33197	-185.5036	1144.1661	427.39441	-186.9718	1179.6624	475.2186	-224.425	1141.5096	473.37286	-139.26611	1144.0416	475.00443																																														-1069.0897	209.67178	-1624.8503	-1074.6692	248.26543	-1624.2181	-1321.692	231.57779	1025.1064	-1320.3549	270.29239	1029.6218	847.92078	184.02188	1196.2689	851.284	222.82106	1194.192	1088.7063	202.58899	-1428.3026	1082.7306	240.89973	-1432.4954	-1171.8942	1686.915	-1581.827	-1170.6184	1647.9364	-1581.6561	-1271.0233	1699.1097	1097.9967	-1271.7756	1660.1415	1099.3778	953.68011	1704.9701	1182.62	973.12244	1731.9454	1162.2402	1026.4745	1669.1943	-1551.6572	1027.9009	1630.2235	-1552.1504	-186.91048	1142.658	474.02365	-186.8459	1103.6783	472.76492
666	5.5416667	-1038.2759	214.45781	-1644.2361	-1109.3032	203.4722	-1599.556	-1063.5737	172.6032	-1625.6014	-1054.0312	262.01852	-1635.0214	-1353.1112	234.93396	1003.9586	-1281.3165	227.04773	1052.3617	-1322.9862	194.13927	1020.7745	-1284.615	287.85864	1052.7756	813.88519	187.80911	1209.6816	893.11798	179.22853	1178.6031	844.54669	145.25568	1198.3099	860.54749	292.629	1167.1401	1115.7269	209.42406	-1401.5869	1056.1779	193.99442	-1460.2411	1094.9885	162.19807	-1423.8795	1069.8311	238.53273	-1425.9669	-1204.453	1685.9285	-1563.3409	-1129.1251	1688.2003	-1606.0764	-1173.1267	1724.3778	-1581.9857	-1133.5627	1581.0065	-1603.5199	-1239.7017	1699.262	1119.3257	-1309.4404	1698.9126	1071.819	-1270.3345	1736.1711	1096.7013	-1244.6553	1593.929	1106.5709	988.90875	1664.2876	1162.3806	955.93445	1702.3403	1181.2107	922.7829	1662.0361	1214.9359	939.8429	1659.3242	1160.0319	999.18457	1668.5881	-1579.5898	1058.7277	1669.949	-1518.6947	1025.0562	1708.0165	-1551.1743	1059.2992	1672.1924	-1585.6252	-187.90398	1141.6042	506.33435	-185.5148	1144.1521	427.4122	-186.97643	1179.6393	475.21429	-224.31882	1141.4694	473.3508	-139.25781	1144.0297	475.02118																																														-1068.913	209.71921	-1624.9635	-1074.4655	248.31624	-1624.3004	-1321.7848	231.49294	1025.0784	-1320.5392	270.21686	1029.5402	847.97137	184.11771	1196.3115	851.39062	222.91628	1194.3164	1088.7635	202.43764	-1428.1449	1082.8337	240.76942	-1432.2083	-1171.8972	1686.9103	-1581.8104	-1170.6183	1647.9316	-1581.6284	-1271.0251	1699.105	1097.9877	-1271.7515	1660.1351	1099.3401	953.71509	1704.9016	1182.4779	973.16296	1731.8521	1162.0709	1026.4675	1669.2117	-1551.6873	1027.8851	1630.2408	-1552.2025	-186.92578	1142.6473	474.02167	-186.87242	1103.6676	472.76495
667	5.55	-1038.2496	214.49344	-1644.2385	-1109.3053	203.48833	-1599.5829	-1063.4834	172.61931	-1625.6658	-1054.1371	262.08514	-1635.0026	-1352.9891	234.95883	1003.87	-1281.3198	227.01474	1052.3701	-1323.0511	194.09708	1020.8109	-1284.6163	287.87585	1052.738	813.8457	187.73175	1209.6399	893.07312	179.13503	1178.5328	844.41071	145.19572	1198.302	860.58484	292.51596	1167.3928	1115.775	209.71391	-1401.7301	1056.1951	194.02126	-1460.2437	1095.026	162.23421	-1423.8998	1069.8901	238.58405	-1425.9211	-1204.4597	1685.9298	-1563.3473	-1129.103	1688.2775	-1606.3164	-1173.1299	1724.3722	-1581.9778	-1133.5195	1581.01	-1603.5295	-1239.6816	1699.2205	1119.3193	-1309.4521	1698.9536	1071.8528	-1270.3182	1736.1545	1096.6968	-1244.624	1594.0983	1106.5154	988.91418	1664.2927	1162.3774	955.86005	1702.3214	1181.2618	922.62946	1662.127	1214.9772	939.82953	1659.2922	1160.0414	999.18323	1668.5552	-1579.5493	1058.7438	1669.9542	-1518.6824	1025.052	1708.0022	-1551.1659	1059.2874	1672.1776	-1585.6427	-187.86603	1141.5941	506.33496	-185.51248	1144.1383	427.41669	-186.98431	1179.6558	475.21271	-224.33096	1141.4673	473.34357	-139.2688	1144.0375	475.00668																																														-1068.8296	209.75719	-1625.0201	-1074.3857	248.35355	-1624.3492	-1321.7482	231.49596	1025.0114	-1320.3988	270.22906	1029.3616	847.83746	184.04341	1196.2937	851.25977	222.84114	1194.288	1088.7197	202.58791	-1428.3009	1082.7329	240.89845	-1432.4792	-1171.9203	1686.9434	-1581.9016	-1170.6608	1647.9639	-1581.822	-1271.0491	1699.1003	1097.9792	-1271.8176	1660.1313	1099.328	953.50195	1705.0343	1182.6091	972.92712	1732.032	1162.2428	1026.4712	1669.196	-1551.6627	1027.8964	1630.2253	-1552.1617	-186.90236	1142.6359	474.02167	-186.81607	1103.656	472.76758
668	5.5583333	-1038.2598	214.45715	-1644.2256	-1109.2826	203.42708	-1599.5637	-1063.5798	172.58417	-1625.6136	-1054.0021	262.01999	-1635.0167	-1352.9657	234.97438	1003.9017	-1281.2986	227.04576	1052.3765	-1323.0736	194.07281	1020.8107	-1284.717	287.77621	1052.8302	813.89709	187.67279	1209.5861	893.10516	179.08734	1178.6244	844.49567	145.30875	1198.2699	860.68652	292.44943	1167.4154	1115.785	209.70175	-1401.7317	1056.2321	194.0629	-1460.2587	1094.9681	162.12189	-1423.8346	1069.8458	238.59726	-1425.9841	-1204.4552	1685.9309	-1563.3528	-1129.1072	1688.1963	-1606.0508	-1173.124	1724.384	-1581.9888	-1133.5082	1581.0063	-1603.5029	-1239.6809	1699.2279	1119.3204	-1309.3757	1698.8369	1071.7952	-1270.3323	1736.1661	1096.7013	-1244.6829	1593.7885	1106.4247	988.87769	1664.2633	1162.4055	955.90167	1702.2845	1181.2748	922.76935	1662.0973	1215.0851	939.77734	1659.2811	1160.0316	999.17108	1668.5391	-1579.5404	1058.8859	1670.1375	-1518.6548	1025.0553	1708.0114	-1551.1576	1059.2888	1672.1865	-1585.6541	-187.88669	1141.589	506.33545	-185.49792	1144.162	427.39944	-186.98428	1179.6588	475.21799	-224.32965	1141.4746	473.33365	-139.26312	1144.0386	475.00494																																														-1068.9219	209.69519	-1624.9438	-1074.478	248.29111	-1624.2473	-1321.7668	231.52281	1025.0042	-1320.4154	270.25729	1029.3414	847.9137	183.98569	1196.2892	851.34247	222.78383	1194.3025	1088.7388	202.5993	-1428.3119	1082.8419	240.91721	-1432.5504	-1171.8931	1686.9098	-1581.8049	-1170.6128	1647.9313	-1581.6136	-1270.9895	1699.0522	1097.9707	-1271.6799	1660.0812	1099.3038	953.58942	1704.9504	1182.5978	972.98212	1731.9147	1162.156	1026.559	1669.2721	-1551.6152	1028.0717	1630.3041	-1552.0758	-186.90855	1142.6425	474.01373	-186.82881	1103.6632	472.74567
